<svg width="45" height="20" viewBox="0 0 35 20" fill="none" xmlns="http://www.w3.org/2000/svg">
<path d="M32.8118 13.5049C30.5808 13.0204 25.0031 11.7638 23.1903 11.355C22.8578 11.2793 22.5896 10.9311 22.5146 10.4769C22.2571 8.99319 21.3883 5.81378 18.5458 5.3293C18.5458 5.3293 18.2562 0 17.4946 0C16.776 0 16.4435 5.3293 16.4435 5.3293C13.5903 5.81378 12.7214 8.99319 12.4747 10.4769C12.3996 10.9311 12.1315 11.2793 11.799 11.355C9.98621 11.7638 4.40852 13.0204 2.17744 13.5049C0.718663 13.8229 0 14.4739 0 14.9281C0 15.5337 0.386148 15.5034 0.386148 15.5034H3.90438C3.8293 15.8062 3.77567 16.1241 3.77567 16.4724C3.77567 18.0318 4.66595 19.2884 5.77076 19.2884C6.87557 19.2884 7.76586 18.0318 7.76586 16.4724C7.76586 16.1393 7.71223 15.8062 7.63714 15.5034H12.8394C13.8155 19.4852 16.4327 19.9697 17.5054 20C18.578 19.9697 21.1952 19.4852 22.1713 15.5034H27.3629C27.2878 15.8062 27.2341 16.1241 27.2341 16.4724C27.2341 18.0318 28.1244 19.2884 29.2292 19.2884C30.334 19.2884 31.2243 18.0318 31.2243 16.4724C31.2243 16.1393 31.1707 15.8062 31.0956 15.5034H34.6139C34.6139 15.5034 35 15.5488 35 14.9281C34.9893 14.4739 34.2813 13.8229 32.8118 13.5049ZM19.361 11.779C18.9105 11.8698 18.3313 11.9455 17.6984 11.9455C17.012 11.9455 16.3576 11.8547 15.8535 11.7638C15.3601 11.673 15.0383 10.9917 15.1563 10.3104C15.2528 9.75019 15.639 9.37169 16.0466 9.43225C16.4649 9.49281 17.0334 9.55337 17.6126 9.55337C18.1918 9.55337 18.7389 9.49281 19.1572 9.43225C19.5648 9.37169 19.951 9.75019 20.0475 10.3104V10.3255C20.1762 11.0068 19.8544 11.6881 19.361 11.779Z" fill="white"/>
</svg>
